<svg width="9" height="9" viewBox="0 0 9 9" fill="none" xmlns="http://www.w3.org/2000/svg">
<path d="M2.83625 4.14051C2.86157 4.11063 2.89194 4.08658 2.92563 4.06974C2.95932 4.05289 2.99566 4.04359 3.03258 4.04236C3.06951 4.04113 3.10629 4.04799 3.14082 4.06255C3.17536 4.07711 3.20698 4.09909 3.23387 4.12723C4.52814 5.48192 5.82682 6.30614 7.35506 6.72626C7.56125 6.10126 7.57953 5.41337 7.40146 4.74227C7.16521 3.85184 6.61502 3.07606 5.81082 2.49891C5.09293 1.98368 4.37539 1.8495 3.68123 1.71981C2.80549 1.55614 1.97826 1.40145 1.18883 0.472741C1.10094 0.370007 0.98123 0.328796 0.866796 0.362194C0.736015 0.401257 0.6483 0.516101 0.606288 0.705944C0.507851 1.15028 0.571132 2.39559 0.847987 3.71024C1.29254 5.82235 2.00199 6.8911 2.51896 7.4159C3.18693 8.09344 4.05916 8.46864 4.92594 8.46864C5.08932 8.46893 5.25249 8.45561 5.41408 8.42879C6.14727 8.30536 6.75758 7.89618 7.10158 7.30087C5.52852 6.84618 4.18467 5.98153 2.84767 4.5829C2.82074 4.55471 2.79907 4.5209 2.78391 4.4834C2.76875 4.44589 2.7604 4.40544 2.75934 4.36434C2.75828 4.32324 2.76452 4.28232 2.77772 4.24391C2.79092 4.2055 2.81081 4.17037 2.83625 4.14051Z" fill="#478252"/>
<path d="M8.21656 6.91755C7.92072 6.86696 7.63402 6.80301 7.35506 6.72626C7.2977 6.90023 7.22651 7.06857 7.14201 7.22829C7.12917 7.25271 7.11547 7.27704 7.10158 7.30087C7.44088 7.39846 7.78463 7.47657 8.13113 7.53513C8.168 7.54233 8.20579 7.54128 8.24229 7.53204C8.27879 7.5228 8.31326 7.50556 8.34369 7.48132C8.37411 7.45708 8.39987 7.42634 8.41947 7.3909C8.43906 7.35546 8.45209 7.31602 8.45779 7.27491C8.46348 7.2338 8.46174 7.19184 8.45265 7.15149C8.44357 7.11114 8.42732 7.07321 8.40487 7.03993C8.38242 7.00664 8.35421 6.97867 8.32191 6.95766C8.2896 6.93665 8.25367 6.92301 8.21656 6.91755Z" fill="#478252"/>
</svg>
